<svg width="24" height="24" viewBox="0 0 24 24" version="1.1" xmlns="http://www.w3.org/2000/svg"><path d="M8,17 L8,7 L11.7707948,7 C13.0770244,7 14.0677723,7.23236947 14.7430684,7.69711538 C15.4183644,8.1618613 15.7560074,8.84294423 15.7560074,9.74038462 C15.7560074,10.2303138 15.6204573,10.6618571 15.349353,11.0350275 C15.0782488,11.4081978 14.7011731,11.6817757 14.2181146,11.8557692 C14.7701814,11.983975 15.205174,12.242672 15.5231054,12.6318681 C15.8410367,13.0210642 16,13.4972499 16,14.0604396 C16,15.0219828 15.6697507,15.7499975 15.0092421,16.2445055 C14.3487336,16.7390135 13.4072766,16.9908424 12.1848429,17 L8,17 Z M10.2181146,12.6456044 L10.2181146,15.3447802 L12.1182994,15.3447802 C12.6407913,15.3447802 13.0486738,15.2291678 13.3419593,14.9979396 C13.6352448,14.7667113 13.7818854,14.4473464 13.7818854,14.0398352 C13.7818854,13.1240797 13.2717241,12.6593407 12.2513863,12.6456044 L10.2181146,12.6456044 Z M10.2181146,11.1895604 L11.8595194,11.1895604 C12.9784406,11.1712453 13.5378928,10.7568722 13.5378928,9.94642857 C13.5378928,9.4931296 13.3961813,9.1668966 13.1127542,8.96771978 C12.829327,8.76854296 12.3820117,8.66895604 11.7707948,8.66895604 L10.2181146,8.66895604 L10.2181146,11.1895604 Z"></path></svg>