<svg width="24" height="24" viewBox="0 0 24 24" version="1.1" xmlns="http://www.w3.org/2000/svg"><path d="M10.1737981,15.5714286 L11.5584135,8.42857143 L9.95714286,8.42857143 C9.7598983,8.42857143 9.6,8.26867312 9.6,8.07142857 L9.6,7.35714286 C9.6,7.1598983 9.7598983,7 9.95714286,7 L15.6428571,7 C15.8401017,7 16,7.1598983 16,7.35714286 L16,8.07142857 C16,8.26867312 15.8401017,8.42857143 15.6428571,8.42857143 L13.7330228,8.42857143 L12.3484075,15.5714286 L14.0428571,15.5714286 C14.2401017,15.5714286 14.4,15.7313269 14.4,15.9285714 L14.4,16.6428571 C14.4,16.8401017 14.2401017,17 14.0428571,17 L8.35714286,17 C8.1598983,17 8,16.8401017 8,16.6428571 L8,15.9285714 C8,15.7313269 8.1598983,15.5714286 8.35714286,15.5714286 L10.1737981,15.5714286 Z"></path></svg>