<svg xmlns="http://www.w3.org/2000/svg" id="Layer_1" data-name="Layer 1" viewBox="0 0 24 24" width="300" height="300" version="1.1" xmlns:xlink="http://www.w3.org/1999/xlink" xmlns:svgjs="http://svgjs.dev/svgjs"><g width="100%" height="100%" transform="matrix(1,0,0,1,0,0)"><path d="M3.498,9.357c-1.583,.011-2.498,.989-2.498,2.651,0,1.649,.916,2.624,2.505,2.634,1.583-.01,2.471-.946,2.499-2.651-.027-1.663-.938-2.624-2.506-2.634Z" fill="#ffffff" fill-opacity="1" data-original-color="#000000ff" stroke="none" stroke-opacity="1"/><path d="M11.996,9.357c-1.583,.011-2.498,.989-2.498,2.651,0,1.649,.916,2.624,2.505,2.634,1.583-.01,2.471-.946,2.499-2.651-.027-1.663-.938-2.624-2.506-2.634Z" fill="#ffffff" fill-opacity="1" data-original-color="#000000ff" stroke="none" stroke-opacity="1"/><path d="M20.494,9.357c-1.583,.011-2.498,.989-2.498,2.651,0,1.649,.916,2.624,2.505,2.634,1.583-.01,2.471-.946,2.499-2.651-.027-1.663-.938-2.624-2.506-2.634Z" fill="#ffffff" fill-opacity="1" data-original-color="#000000ff" stroke="none" stroke-opacity="1"/></g></svg>