<svg width="24" height="24" viewBox="0 0 24 24" version="1.1" xmlns="http://www.w3.org/2000/svg"><path d="M16.3453125,7 L16.3453125,13.402819 C16.3453125,14.4666225 15.951127,15.3078604 15.1627441,15.9265579 C14.3743613,16.5452553 13.2972725,16.8545994 11.9314453,16.8545994 C10.586712,16.8545994 9.51885161,16.5541573 8.72783203,15.9532641 C7.93681245,15.3523709 7.53339852,14.5267115 7.51757812,13.4762611 L7.51757812,7 L9.890625,7 L9.890625,13.4161721 C9.890625,14.0526738 10.0712384,14.5166899 10.4324707,14.8082344 C10.793703,15.0997789 11.2933562,15.245549 11.9314453,15.245549 C13.2656317,15.245549 13.9432616,14.6535668 13.9643555,13.4695846 L13.9643555,7 L16.3453125,7 Z M7.87982196,17.4807122 L16.120178,17.4807122 C16.3299479,17.4807122 16.5,17.6507642 16.5,17.8605341 L16.5,18.620178 C16.5,18.8299479 16.3299479,19 16.120178,19 L7.87982196,19 C7.67005208,19 7.5,18.8299479 7.5,18.620178 L7.5,17.8605341 C7.5,17.6507642 7.67005208,17.4807122 7.87982196,17.4807122 Z"></path></svg>